Coordinates
version=1
nRows=10
nColumns=23
inDegrees=yes

Units are S.I. units (second, meters, Newtons, ...)
If the header above contains a line with 'inDegrees', this indicates whether rotational values are in degrees (yes) or radians (no).

endheader
time	pelvis_tilt	pelvis_list	pelvis_rotation	pelvis_tx	pelvis_ty	pelvis_tz	hip_flexion_r	hip_adduction_r	hip_rotation_r	knee_angle_r	knee_angle_r_beta	ankle_angle_r	subtalar_angle_r	mtp_angle_r	hip_flexion_l	hip_adduction_l	hip_rotation_l	knee_angle_l	knee_angle_l_beta	ankle_angle_l	subtalar_angle_l	mtp_angle_l
      7.50000000	     -5.35598431	      6.77544223	      7.20709635	      2.33034536	      0.96083711	      1.04125420	      2.29012645	    -10.24752248	     -7.68852344	     89.90116345	      1.56907130	    -12.38334799	    -13.57087093	      0.00000000	     29.84497385	     12.85886941	     -0.78817350	     35.20420041	      0.61442921	      5.92826828	     -5.49312618	      0.00000000
      7.50666667	     -5.56295582	      6.78012335	      7.54517082	      2.32888802	      0.95595386	      1.04079835	      4.41061520	    -10.89425406	     -7.78485973	     92.60693179	      1.61629587	    -11.59941654	    -13.55334919	      0.00000000	     30.07777153	     13.05992471	     -0.56244819	     38.00911691	      0.66338424	      7.91997171	     -5.77583779	      0.00000000
      7.51333333	     -5.73590626	      6.80444080	      7.83055112	      2.32733571	      0.95156005	      1.04041783	      6.59590192	    -11.57590045	     -7.77438477	     95.08487896	      1.65954421	    -10.75638175	    -13.32337013	      0.00000000	     30.03848040	     13.27722271	     -0.20454005	     40.42657532	      0.70557684	     10.03016590	     -5.97487496	      0.00000000
      7.52000000	     -5.83464875	      6.86991141	      8.10087545	      2.32576979	      0.94780198	      1.04002712	      8.75881620	    -12.32654320	     -7.71754455	     97.27703264	      1.69780451	     -9.86788045	    -12.87608176	      0.00000000	     29.64393271	     13.54782268	      0.30958484	     42.39314054	      0.73989988	     12.14186351	     -6.16217604	      0.00000000
      7.52666667	     -5.92577771	      6.96859194	      8.24249127	      2.32420507	      0.94467665	      1.03979639	     11.04583898	    -13.05106027	     -7.42858582	     99.20896762	      1.73152313	     -8.94463018	    -12.26740544	      0.00000000	     28.97042766	     13.75974592	      0.74043440	     43.88155189	      0.76587756	     14.17097994	     -6.17128084	      0.00000000
      7.53333333	     -5.92899484	      7.09769824	      8.29793135	      2.32269628	      0.94232816	      1.03969826	     13.31540166	    -13.73770310	     -7.00356069	    100.82259819	      1.75968630	     -8.01785520	    -11.52884048	      0.00000000	     27.92875549	     13.93062850	      1.15884734	     44.89773474	      0.78361330	     16.11781798	     -6.06681250	      0.00000000
      7.54000000	     -5.87575868	      7.23495314	      8.27041489	      2.32131307	      0.94075731	      1.03969661	     15.58930421	    -14.36196448	     -6.45692087	    102.09507910	      1.78189528	     -7.08232550	    -10.62618754	      0.00000000	     26.56191501	     14.03639244	      1.52514307	     45.44531071	      0.79317030	     17.90472625	     -5.85389126	      0.00000000
      7.54666667	     -5.74130336	      7.34893055	      8.14038105	      2.32011180	      0.93999645	      1.03987172	     17.81449514	    -14.83386589	     -5.80192173	    103.00069314	      1.79770123	     -6.17285602	     -9.70010057	      0.00000000	     24.86949151	     14.02109798	      1.80732600	     45.56078646	      0.79518573	     19.52383584	     -5.56829092	      0.00000000
      7.55333333	     -5.55086585	      7.40899792	      7.91045879	      2.31906478	      0.93997682	      1.04018552	     19.99971349	    -15.11012112	     -5.06342241	    103.54045809	      1.80712190	     -5.28819632	     -8.72377346	      0.00000000	     22.91639161	     13.88997313	      2.05431993	     45.29291188	      0.79051044	     20.90847675	     -5.17435950	      0.00000000
      7.56000000	     -5.32715917	      7.40621112	      7.61966480	      2.31825750	      0.94073434	      1.04060255	     22.10841174	    -15.20755052	     -4.32880163	    103.68709566	      1.80968121	     -4.37164150	     -7.62000008	      0.00000000	     20.72376817	     13.61593013	      2.19428275	     44.62136733	      0.77878978	     22.04184490	     -4.61433612	      0.00000000
